<svg width="50" height="106" viewBox="0 0 50 106" fill="none" xmlns="http://www.w3.org/2000/svg">
<path id="Vector 1" d="M0.522996 103.85C0.440214 104.114 0.586667 104.394 0.850109 104.477L5.14314 105.826C5.40658 105.909 5.68725 105.762 5.77004 105.499C5.85282 105.235 5.70637 104.955 5.44292 104.872L1.6269 103.673L2.82603 99.8569C2.90881 99.5934 2.76236 99.3127 2.49891 99.23C2.23547 99.1472 1.9548 99.2936 1.87202 99.5571L0.522996 103.85ZM48.9872 54.0899L49.4869 54.1073L48.9872 54.0899ZM1 1C0.759775 1.43851 0.75977 1.43851 0.759765 1.43851C0.759765 1.43851 0.759761 1.4385 0.759761 1.4385C0.759761 1.4385 0.759764 1.43851 0.759773 1.43851C0.75979 1.43852 0.759824 1.43854 0.759876 1.43857C0.75998 1.43862 0.760154 1.43872 0.760398 1.43885C0.760887 1.43912 0.761657 1.43954 0.762706 1.44012C0.764803 1.44127 0.768019 1.44304 0.77234 1.44542C0.780984 1.45018 0.794053 1.45738 0.811461 1.46701C0.846276 1.48627 0.898444 1.51522 0.967264 1.55368C1.1049 1.63059 1.30915 1.7455 1.57439 1.89686L2.07002 1.02833C1.80208 0.875427 1.59522 0.75904 1.45505 0.680718C1.38497 0.641557 1.33156 0.611912 1.29552 0.591976C1.2775 0.582008 1.26383 0.574467 1.25458 0.569378C1.24996 0.566833 1.24644 0.564902 1.24405 0.563586C1.24285 0.562928 1.24193 0.562424 1.24129 0.562074C1.24097 0.561899 1.24073 0.561763 1.24055 0.561665C1.24046 0.561617 1.24039 0.561578 1.24033 0.561548C1.24031 0.561533 1.24028 0.561521 1.24027 0.561511C1.24026 0.561506 1.24025 0.561501 1.24024 0.561498C1.24023 0.561493 1.24022 0.561489 1 1ZM3.2637 2.87962C3.76122 3.17394 4.32426 3.51098 4.94493 3.88856L5.46466 3.03423C4.84032 2.65442 4.27375 2.31526 3.77286 2.01894L3.2637 2.87962ZM6.61701 4.91878C7.14098 5.24563 7.69261 5.59346 8.26876 5.96142L8.807 5.11863C8.22777 4.7487 7.67314 4.39898 7.14627 4.07032L6.61701 4.91878ZM9.90403 7.01778C10.4302 7.36157 10.9721 7.71936 11.5277 8.0906L12.0833 7.25913C11.5247 6.88592 10.98 6.52624 10.451 6.18062L9.90403 7.01778ZM13.1429 9.18205C13.6696 9.54198 14.2061 9.91259 14.751 10.2935L15.3239 9.47386C14.7761 9.0909 14.2367 8.71829 13.7071 8.35642L13.1429 9.18205ZM16.3514 11.4253C16.8721 11.7977 17.3987 12.1788 17.9301 12.568L18.521 11.7612C17.9865 11.3697 17.4569 10.9865 16.9333 10.612L16.3514 11.4253ZM19.4945 13.7276C20.0105 14.1147 20.5297 14.509 21.0513 14.9102L21.661 14.1175C21.1361 13.7138 20.6137 13.3171 20.0947 12.9277L19.4945 13.7276ZM22.5933 16.1116C23.0989 16.5108 23.6058 16.9161 24.1129 17.3273L24.7427 16.5505C24.2321 16.1365 23.7218 15.7285 23.2129 15.3267L22.5933 16.1116ZM25.6211 18.5673C26.1188 18.9822 26.6158 19.4026 27.1114 19.8282L27.7629 19.0696C27.2635 18.6407 26.7628 18.2172 26.2615 17.7992L25.6211 18.5673ZM28.5792 21.1082C29.065 21.5385 29.5485 21.9736 30.0289 22.4133L30.7041 21.6756C30.2195 21.2321 29.732 20.7934 29.2423 20.3597L28.5792 21.1082ZM31.4551 23.7412C31.9266 24.1881 32.3942 24.6392 32.8571 25.0944L33.5583 24.3814C33.0908 23.9217 32.6188 23.4663 32.1429 23.0154L31.4551 23.7412ZM34.2321 26.4735C34.6865 26.9385 35.1352 27.4073 35.5776 27.8798L36.3076 27.1964C35.8602 26.7185 35.4065 26.2445 34.9473 25.7746L34.2321 26.4735ZM36.8923 29.3167C37.3256 29.8016 37.7515 30.2899 38.169 30.7814L38.9311 30.134C38.508 29.6359 38.0767 29.1413 37.638 28.6504L36.8923 29.3167ZM39.4074 32.2797C39.8159 32.7881 40.2148 33.2996 40.6031 33.8138L41.4011 33.2111C41.0065 32.6886 40.6014 32.1693 40.187 31.6534L39.4074 32.2797ZM41.7461 35.379C42.1212 35.9111 42.4843 36.4459 42.8345 36.9829L43.6722 36.4367C43.3151 35.8891 42.9452 35.3444 42.5634 34.8028L41.7461 35.379ZM43.8624 38.6295C44.1954 39.1881 44.5136 39.7488 44.8158 40.3113L45.6967 39.838C45.3871 39.2618 45.0616 38.6882 44.7213 38.1174L43.8624 38.6295ZM45.686 42.0294C45.9658 42.6179 46.2271 43.208 46.469 43.7993L47.3946 43.4207C47.1454 42.8116 46.8765 42.2046 46.5892 41.6001L45.686 42.0294ZM47.1443 45.6044C47.3516 46.2164 47.5369 46.8292 47.699 47.4426L48.6658 47.1871C48.4977 46.5508 48.3057 45.9162 48.0914 45.2835L47.1443 45.6044ZM48.1192 49.3111C48.2363 49.9438 48.3273 50.5767 48.3909 51.2093L49.3859 51.1092C49.3194 50.4482 49.2244 49.788 49.1025 49.1292L48.1192 49.3111ZM48.4986 53.1175C48.5023 53.436 48.4986 53.7543 48.4875 54.0724L49.4869 54.1073C49.4986 53.7735 49.5024 53.4398 49.4986 53.1061L48.4986 53.1175ZM48.4875 54.0724C48.4763 54.3954 48.4573 54.7184 48.4308 55.0414L49.4274 55.1232C49.4552 54.7848 49.4751 54.4462 49.4869 54.1073L48.4875 54.0724ZM48.1843 56.9716C48.0744 57.6084 47.9367 58.2447 47.7726 58.8801L48.7409 59.1301C48.9115 58.4694 49.055 57.8064 49.1698 57.1417L48.1843 56.9716ZM47.2134 60.7523C47.0065 61.3634 46.7763 61.9732 46.5244 62.5816L47.4483 62.9642C47.7083 62.3365 47.9462 61.706 48.1605 61.0731L47.2134 60.7523ZM45.7198 64.3695C45.4364 64.9535 45.1338 65.5356 44.8134 66.1155L45.6886 66.5992C46.0172 66.0045 46.3279 65.4067 46.6195 64.8061L45.7198 64.3695ZM43.8176 67.8192C43.4771 68.3718 43.1213 68.922 42.7513 69.4695L43.5798 70.0295C43.9573 69.4709 44.3208 68.9089 44.669 68.3437L43.8176 67.8192ZM41.6157 71.0813C41.2289 71.6091 40.8297 72.134 40.419 72.6557L41.2048 73.2743C41.6222 72.7439 42.0284 72.2099 42.4223 71.6724L41.6157 71.0813ZM39.1717 74.1898C38.7508 74.6914 38.3201 75.1898 37.8806 75.6845L38.6282 76.3487C39.0737 75.8472 39.5106 75.3417 39.9378 74.8325L39.1717 74.1898ZM36.5461 77.1475C36.0961 77.6282 35.6385 78.1051 35.1742 78.5781L35.8878 79.2786C36.3575 78.8003 36.8206 78.3176 37.2761 77.8308L36.5461 77.1475ZM33.772 79.9749C33.2994 80.4356 32.8211 80.892 32.3381 81.344L33.0214 82.0742C33.5092 81.6177 33.9924 81.1565 34.47 80.691L33.772 79.9749ZM30.8777 82.6846C30.386 83.1276 29.8904 83.5658 29.392 83.9991L30.048 84.7538C30.5508 84.3168 31.0508 83.8746 31.547 83.4276L30.8777 82.6846ZM27.883 85.2887C27.3756 85.7153 26.8661 86.1365 26.3556 86.5522L26.987 87.3277C27.5014 86.9088 28.0149 86.4842 28.5265 86.0542L27.883 85.2887ZM24.8064 87.7946C24.2834 88.2078 23.7602 88.615 23.2379 89.0159L23.8467 89.8092C24.3726 89.4055 24.8995 88.9955 25.4264 88.5793L24.8064 87.7946ZM21.6562 90.2132C21.1221 90.612 20.5901 91.0038 20.0611 91.3884L20.6492 92.1972C21.1815 91.8102 21.7169 91.4159 22.2544 91.0145L21.6562 90.2132ZM18.4422 92.5503C17.8939 92.9388 17.3503 93.319 16.8127 93.6905L17.3812 94.5132C17.9219 94.1395 18.4688 93.7571 19.0204 93.3662L18.4422 92.5503ZM15.1742 94.8089C14.6167 95.1849 14.0673 95.5508 13.5277 95.9061L14.0776 96.7413C14.6202 96.384 15.1726 96.0162 15.7333 95.638L15.1742 94.8089ZM11.8609 96.9905C11.2857 97.3603 10.7246 97.7166 10.1795 98.0587L10.7112 98.9057C11.2592 98.5617 11.8234 98.2035 12.4017 97.8317L11.8609 96.9905ZM8.4893 99.1072C7.89735 99.4699 7.33036 99.8128 6.79164 100.135L7.30478 100.993C7.84652 100.669 8.41665 100.325 9.01182 99.9598L8.4893 99.1072ZM5.09239 101.138C4.44766 101.513 3.86284 101.848 3.34642 102.14L3.83868 103.011C4.35863 102.717 4.94715 102.38 5.59573 102.002L5.09239 101.138ZM1.60894 103.106C1.33548 103.255 1.12482 103.368 0.982813 103.443C0.911811 103.481 0.857977 103.51 0.822046 103.529C0.80408 103.538 0.790591 103.545 0.781668 103.55C0.777207 103.552 0.773888 103.554 0.771722 103.555C0.770639 103.556 0.769845 103.556 0.76934 103.556C0.769088 103.557 0.768908 103.557 0.7688 103.557C0.768747 103.557 0.768711 103.557 0.768694 103.557C0.768685 103.557 0.768681 103.557 0.768682 103.557C0.768682 103.557 0.768686 103.557 0.768686 103.557C0.768691 103.557 0.768697 103.557 1 104C1.2313 104.443 1.23131 104.443 1.23132 104.443C1.23133 104.443 1.23134 104.443 1.23135 104.443C1.23136 104.443 1.23139 104.443 1.23142 104.443C1.23147 104.443 1.23154 104.443 1.23164 104.443C1.23182 104.443 1.23208 104.443 1.23241 104.443C1.23306 104.442 1.23401 104.442 1.23525 104.441C1.23772 104.44 1.24135 104.438 1.24612 104.436C1.25566 104.431 1.26978 104.423 1.28837 104.413C1.32557 104.394 1.38068 104.365 1.45299 104.326C1.5976 104.249 1.81097 104.134 2.08722 103.984L1.60894 103.106Z" fill="black"/>
</svg>
