<svg width="25" height="24" viewBox="0 0 25 24" fill="none" xmlns="http://www.w3.org/2000/svg">
<g id="bxs:phone-call">
<path id="Vector" d="M20.6311 10.999H22.6311C22.6311 5.869 18.7581 2 13.6211 2V4C17.6831 4 20.6311 6.943 20.6311 10.999Z" fill="white"/>
<path id="Vector_2" d="M13.6307 8.00024C15.7337 8.00024 16.6307 8.89724 16.6307 11.0002H18.6307C18.6307 7.77524 16.8557 6.00024 13.6307 6.00024V8.00024ZM17.0527 13.4432C16.8605 13.2686 16.608 13.1754 16.3485 13.1835C16.0889 13.1915 15.8427 13.3001 15.6617 13.4862L13.2687 15.9472C12.6927 15.8372 11.5347 15.4762 10.3427 14.2872C9.15065 13.0942 8.78965 11.9332 8.68265 11.3612L11.1417 8.96724C11.3281 8.78637 11.4368 8.54006 11.4448 8.28045C11.4528 8.02083 11.3595 7.76828 11.1847 7.57624L7.48965 3.51324C7.3147 3.3206 7.07153 3.20374 6.81181 3.1875C6.55208 3.17125 6.29625 3.2569 6.09865 3.42624L3.92865 5.28724C3.75576 5.46075 3.65257 5.69169 3.63865 5.93624C3.62365 6.18624 3.33765 12.1082 7.92965 16.7022C11.9357 20.7072 16.9537 21.0002 18.3357 21.0002C18.5377 21.0002 18.6617 20.9942 18.6947 20.9922C18.9392 20.9786 19.17 20.8749 19.3427 20.7012L21.2027 18.5302C21.3721 18.3328 21.4579 18.077 21.4419 17.8173C21.4258 17.5576 21.3092 17.3143 21.1167 17.1392L17.0527 13.4432Z" fill="white"/>
</g>
</svg>
