<svg width="25" height="24" viewBox="0 0 25 24" fill="none" xmlns="http://www.w3.org/2000/svg">
<g id="carbon:location-filled">
<path id="Vector" d="M12.6309 1.5C10.4436 1.50258 8.3467 2.3726 6.80009 3.91922C5.25347 5.46584 4.38345 7.56276 4.38087 9.75C4.37825 11.5374 4.9621 13.2763 6.04287 14.7C6.04287 14.7 6.26787 14.9963 6.30462 15.039L12.6309 22.5L18.9601 15.0353C18.9931 14.9955 19.2189 14.7 19.2189 14.7L19.2196 14.6978C20.2998 13.2747 20.8834 11.5366 20.8809 9.75C20.8783 7.56276 20.0083 5.46584 18.4616 3.91922C16.915 2.3726 14.8181 1.50258 12.6309 1.5ZM12.6309 12.75C12.0375 12.75 11.4575 12.5741 10.9642 12.2444C10.4708 11.9148 10.0863 11.4462 9.85923 10.8981C9.63217 10.3499 9.57276 9.74667 9.68851 9.16473C9.80427 8.58279 10.09 8.04824 10.5095 7.62868C10.9291 7.20912 11.4637 6.9234 12.0456 6.80764C12.6275 6.69189 13.2307 6.7513 13.7789 6.97836C14.3271 7.20542 14.7956 7.58994 15.1253 8.08329C15.4549 8.57664 15.6309 9.15666 15.6309 9.75C15.6299 10.5453 15.3135 11.3078 14.7511 11.8702C14.1887 12.4326 13.4262 12.749 12.6309 12.75Z" fill="white"/>
</g>
</svg>
