<svg width="37" height="36" viewBox="0 0 37 36" fill="none" xmlns="http://www.w3.org/2000/svg">
<g id="Frame">
<path id="Vector" d="M31.5492 4.5V7.5C31.5492 21.9411 23.4905 28.5 13.5493 28.5L7.9134 28.4999C7.67014 29.868 7.54932 31.3605 7.54932 33H4.54932C4.54932 30.9559 4.72288 29.0996 5.06796 27.4023C4.72219 25.4611 4.54932 22.8264 4.54932 19.5C4.54932 11.2157 11.265 4.5 19.5492 4.5C22.5492 4.5 25.5492 6 31.5492 4.5ZM19.5492 7.5C12.9219 7.5 7.54932 12.8726 7.54932 19.5C7.54932 20.0436 7.55412 20.5667 7.56363 21.0689C9.44521 18.1026 12.2008 15.7572 15.8051 13.6976L17.2935 16.3023C13.0112 18.7494 10.1706 21.5302 8.71218 25.4997L13.5493 25.5C22.572 25.5 28.356 19.5403 28.5446 8.08149C26.4866 8.2817 24.5744 8.154 22.2153 7.80013C20.4887 7.54113 20.1504 7.5 19.5492 7.5Z" fill="white"/>
</g>
</svg>
