<svg width="37" height="36" viewBox="0 0 37 36" fill="none" xmlns="http://www.w3.org/2000/svg">
<g id="Frame">
<path id="Vector" d="M15.0119 27H21.0926C21.2906 25.1976 22.2104 23.7097 23.7036 22.0839C23.8718 21.9009 24.9504 20.7846 25.0784 20.6252C26.3499 19.0396 27.0522 17.0775 27.0522 15C27.0522 10.0294 23.0228 6 18.0522 6C13.0817 6 9.05225 10.0294 9.05225 15C9.05225 17.0765 9.75386 19.0375 11.0242 20.6226C11.1523 20.7825 12.2335 21.9018 12.3996 22.0827C13.8937 23.7096 14.8138 25.1976 15.0119 27ZM21.0522 30H15.0522V31.5H21.0522V30ZM8.68317 22.4988C7.03692 20.4445 6.05225 17.8372 6.05225 15C6.05225 8.37258 11.4248 3 18.0522 3C24.6797 3 30.0522 8.37258 30.0522 15C30.0522 17.8387 29.0664 20.4473 27.4187 22.5021C26.4882 23.6622 24.0522 25.5 24.0522 27.75V31.5C24.0522 33.1569 22.7091 34.5 21.0522 34.5H15.0522C13.3954 34.5 12.0522 33.1569 12.0522 31.5V27.75C12.0522 25.5 9.61412 23.6604 8.68317 22.4988ZM19.5522 15.0072H23.3022L16.5522 24.0072V18.0072H12.8022L19.5522 9V15.0072Z" fill="white"/>
</g>
</svg>
