<svg width="37" height="36" viewBox="0 0 37 36" fill="none" xmlns="http://www.w3.org/2000/svg">
<g id="Frame">
<path id="Vector" d="M25.4528 13.4474C24.6912 7.55343 19.6535 3 13.5522 3C6.92483 3 1.55225 8.37258 1.55225 15C1.55225 17.8386 2.53785 20.4469 4.1855 22.5016C5.39751 24.0131 6.05274 25.6878 6.05262 27.4592L6.05225 33H19.5522L19.5537 28.5H22.5522C24.2091 28.5 25.5522 27.1569 25.5522 25.5V21.1065L28.4912 19.8475C29.006 19.6271 29.0508 19.1051 28.8285 18.7556L25.4528 13.4474ZM4.55225 15C4.55225 10.0294 8.58168 6 13.5522 6C18.0887 6 21.902 9.37712 22.4774 13.8318L22.563 14.4939L24.8768 18.1322L22.5522 19.1278V25.5H16.5548L16.5533 30H9.05244L9.05262 27.4594C9.05279 25.0008 8.16672 22.671 6.52592 20.6248C5.25452 19.0394 4.55225 17.0773 4.55225 15ZM31.7825 27.1536L29.2862 25.4894C30.7176 23.3463 31.5522 20.7707 31.5522 18.0002C31.5522 15.2295 30.7176 12.6538 29.2862 10.5108L31.7825 8.84656C33.5322 11.4658 34.5522 14.6138 34.5522 18.0002C34.5522 21.3864 33.5322 24.5343 31.7825 27.1536Z" fill="white"/>
</g>
</svg>
