<svg width="37" height="36" viewBox="0 0 37 36" fill="none" xmlns="http://www.w3.org/2000/svg">
<g id="Frame">
<path id="Vector" d="M18.0522 33C9.76797 33 3.05225 26.2842 3.05225 18C3.05225 9.71572 9.76797 3 18.0522 3C26.3364 3 33.0522 9.71572 33.0522 18C33.0522 26.2842 26.3364 33 18.0522 33ZM18.0522 30C24.6797 30 30.0522 24.6275 30.0522 18C30.0522 11.3726 24.6797 6 18.0522 6C11.4248 6 6.05225 11.3726 6.05225 18C6.05225 24.6275 11.4248 30 18.0522 30ZM19.5522 18H25.5522V21H16.5522V10.5H19.5522V18Z" fill="white"/>
</g>
</svg>
