<svg width="37" height="36" viewBox="0 0 37 36" fill="none" xmlns="http://www.w3.org/2000/svg">
<g id="Frame">
<path id="Vector" d="M4.55225 27.75V7.5C4.55225 5.01472 6.56697 3 9.05225 3H30.0522C30.8807 3 31.5522 3.67158 31.5522 4.5V31.5C31.5522 32.3284 30.8807 33 30.0522 33H9.80225C6.90275 33 4.55225 30.6495 4.55225 27.75ZM28.5522 30V25.5H9.80225C8.5596 25.5 7.55225 26.5074 7.55225 27.75C7.55225 28.9926 8.5596 30 9.80225 30H28.5522ZM7.55225 23.0052C8.23419 22.6812 8.99705 22.5 9.80225 22.5H28.5522V6H9.05225C8.22383 6 7.55225 6.67158 7.55225 7.5V23.0052Z" fill="white"/>
</g>
</svg>
