<svg width="117" height="116" viewBox="0 0 117 116" fill="none" xmlns="http://www.w3.org/2000/svg">
<g id="Frame">
<path id="Vector" d="M58.9032 106.333C32.2094 106.333 10.5698 84.6936 10.5698 58.0001C10.5698 31.3063 32.2094 9.66675 58.9032 9.66675C85.5967 9.66675 107.236 31.3063 107.236 58.0001C107.236 84.6936 85.5967 106.333 58.9032 106.333ZM52.2423 40.6706C51.9248 40.4589 51.5517 40.3459 51.1698 40.3459C50.1021 40.3459 49.2365 41.2115 49.2365 42.2792V73.721C49.2365 74.1028 49.3496 74.476 49.5613 74.7935C50.1534 75.6819 51.354 75.9221 52.2423 75.3295L75.8237 59.6086C76.0359 59.467 76.2181 59.2848 76.3597 59.0726C76.9523 58.1842 76.7121 56.9836 75.8237 56.3915L52.2423 40.6706Z" fill="white"/>
</g>
</svg>
