<svg width="37" height="36" viewBox="0 0 37 36" fill="none" xmlns="http://www.w3.org/2000/svg">
<g id="Frame">
<path id="Vector" d="M4.7937 6.70386C8.42962 3.06793 14.2227 2.90398 18.0532 6.21199C21.8812 2.90398 27.6744 3.06793 31.3102 6.70386C34.9396 10.3333 35.1094 16.1121 31.8198 19.9428L20.1733 31.6293C19.0549 32.7477 17.2734 32.7986 16.0948 31.7819L15.9307 31.6293L4.28412 19.9428C0.994425 16.1121 1.16429 10.3333 4.7937 6.70386ZM6.91501 8.82517C4.35429 11.3859 4.28113 15.4922 6.69553 18.1413L6.91501 18.3711L18.052 29.508L26.0059 21.552L20.7036 16.2498L19.1127 17.8408C17.3553 19.5981 14.506 19.5981 12.7486 17.8408C10.9913 16.0835 10.9913 13.2342 12.7486 11.4768L15.9004 8.32308C13.3314 6.26643 9.60814 6.36063 7.1449 8.60568L6.91501 8.82517ZM19.6429 13.0678C20.2287 12.482 21.1785 12.482 21.7642 13.0678L28.1272 19.4307L29.1889 18.3711C31.8249 15.7352 31.8249 11.4612 29.1889 8.82517C26.6281 6.26445 22.5219 6.19128 19.8729 8.60568L19.6429 8.82517L14.87 13.5981C14.326 14.1421 14.2872 14.9999 14.7534 15.5886L14.87 15.7194C15.414 16.2634 16.2717 16.3023 16.8604 15.8359L16.9914 15.7194L19.6429 13.0678Z" fill="white"/>
</g>
</svg>
